# File created by Blade
# Date/Time:  Wed Apr 08 16:19:59 2015
# Frame Rate: 120.000 fps
#------------------------------------------------------
:FULLY-SPECIFIED
:DEGREES
2605
root -21.198052 27.939555 0.818089 347.164035 -73.835187 -404.913874
Spine -74.854489 -16.712039 3.072059
Head -88.491854 3.251997 10.470838
LeftShoulder -17.738068 1.583487 49.821443
LeftArm 219.397172 -64.784112 -208.193727
LeftForeArm -15.407168 -0.000000 40.334998
LeftHand 18.889208 0.000000 107.263594
LeftHandThumb1 -26.253704 0.000000 33.147579
RightShoulder -27.532034 39.506498 -69.361043
RightArm -33.541977 64.418486 -23.930433
RightForeArm 19.677552 -0.000000 50.055281
RightHand 18.691887 0.000000 -94.199836
RightHandThumb1 -24.326973 -0.000000 -32.862282
LeftUpLeg 12.501789 7.268550 18.732762
LeftLeg 86.020113 -0.000000 -0.000000
LeftFoot -10.310116 1.877226 -9.445796
LeftToeBase -42.536828 -0.000000 0.000000
RightUpLeg 5.171556 -17.618339 -14.973899
RightLeg 80.466649 -0.000000 -0.000000
RightFoot 31.437169 -13.173149 2.628740
RightToeBase -55.488357 -0.000000 0.000000
2606
root -21.223120 27.938285 0.780708 347.464425 -73.902770 -405.237965
Spine -74.866677 -16.783314 3.132969
Head -88.341826 3.371367 10.565690
LeftShoulder -17.873491 1.810880 49.860390
LeftArm 218.424718 -64.744354 -207.333359
LeftForeArm -15.145841 -0.000000 40.473416
LeftHand 18.848037 -0.000000 107.303944
LeftHandThumb1 -26.253704 0.000000 33.147579
RightShoulder -27.529137 39.247173 -69.320199
RightArm -33.756612 64.533421 -23.740266
RightForeArm 19.641323 -0.000000 50.281410
RightHand 18.601506 -0.000000 -94.473024
RightHandThumb1 -24.326973 -0.000000 -32.862282
LeftUpLeg 12.499852 7.034560 18.653127
LeftLeg 86.064208 -0.000000 -0.000000
LeftFoot -10.370392 1.963867 -9.710335
LeftToeBase -42.447050 -0.000000 0.000000
RightUpLeg 5.229879 -17.555197 -14.821675
RightLeg 80.483889 -0.000000 -0.000000
RightFoot 31.484589 -12.961944 2.700716
RightToeBase -55.884060 -0.000000 0.000000
2607
root -21.246443 27.937388 0.740365 347.861338 -73.985439 -405.632347
Spine -74.892121 -16.833668 3.197576
Head -88.278237 3.457565 10.687567
LeftShoulder -18.124921 2.124004 49.886400
LeftArm 216.710524 -64.609060 -205.871043
LeftForeArm -14.741909 0.000000 40.787648
LeftHand 18.829755 -0.000000 107.223268
LeftHandThumb1 -26.253704 0.000000 33.147579
RightShoulder -27.563241 38.905583 -69.252851
RightArm -33.872437 64.644161 -23.440727
RightForeArm 19.653899 -0.000000 50.554121
RightHand 18.584318 -0.000000 -94.315400
RightHandThumb1 -24.326973 -0.000000 -32.862282
LeftUpLeg 12.486167 6.813608 18.600953
LeftLeg 86.087541 -0.000000 -0.000000
LeftFoot -10.460324 2.018082 -9.991468
LeftToeBase -42.388017 -0.000000 0.000000
RightUpLeg 5.269055 -17.483948 -14.622284
RightLeg 80.503996 -0.000000 -0.000000
RightFoot 31.393057 -12.772393 2.855301
RightToeBase -56.211429 -0.000000 0.000000
2608
root -21.270944 27.938049 0.701828 348.196479 -74.069295 -405.939376
Spine -74.941586 -16.892762 3.253426
Head -88.218039 3.582524 10.863541
LeftShoulder -18.260136 2.393325 50.007899
LeftArm 215.677097 -64.504347 -205.104651
LeftForeArm -14.380080 -0.000000 40.977000
LeftHand 18.847998 0.000000 107.163587
LeftHandThumb1 -26.253704 0.000000 33.147579
RightShoulder -27.477473 38.723895 -69.071502
RightArm -33.900107 64.487616 -23.319601
RightForeArm 19.844909 -0.000000 50.639498
RightHand 18.542032 -0.000000 -94.307121
RightHandThumb1 -24.326973 -0.000000 -32.862282
LeftUpLeg 12.474768 6.615330 18.526023
LeftLeg 86.092213 -0.000000 -0.000000
LeftFoot -10.563365 2.098493 -10.226136
LeftToeBase -42.291173 -0.000000 0.000000
RightUpLeg 5.315544 -17.417771 -14.458802
RightLeg 80.521256 -0.000000 -0.000000
RightFoot 31.181557 -12.540494 3.013942
RightToeBase -56.661415 -0.000000 0.000000
2609
root -21.296381 27.939570 0.667462 348.520321 -74.170769 -406.246584
Spine -74.960406 -16.895352 3.290258
Head -88.229371 3.644137 10.945015
LeftShoulder -18.374139 2.725734 50.065911
LeftArm 214.669704 -64.333642 -204.390741
LeftForeArm -14.033229 -0.000000 41.155176
LeftHand 18.694951 -0.000000 107.089869
LeftHandThumb1 -26.253704 0.000000 33.147579
RightShoulder -27.400095 38.489489 -68.943646
RightArm -34.045692 64.358128 -23.281253
RightForeArm 20.013005 -0.000000 50.755084
RightHand 18.548071 -0.000000 -94.221659
RightHandThumb1 -24.326973 -0.000000 -32.862282
LeftUpLeg 12.501759 6.436417 18.445775
LeftLeg 86.077817 -0.000000 -0.000000
LeftFoot -10.675860 2.185336 -10.448705
LeftToeBase -42.293796 -0.000000 0.000000
RightUpLeg 5.384310 -17.362154 -14.322028
RightLeg 80.508788 -0.000000 -0.000000
RightFoot 31.043816 -12.359301 3.031305
RightToeBase -57.445654 -0.000000 0.000000
2610
root -21.320516 27.943333 0.629925 348.859936 -74.282677 -406.559208
Spine -74.998730 -16.896019 3.349894
Head -88.259179 3.716464 11.022401
LeftShoulder -18.460641 2.972716 50.062487
LeftArm 214.109230 -64.299074 -203.968611
LeftForeArm -13.695049 -0.000000 41.185212
LeftHand 18.596224 -0.000000 106.891966
LeftHandThumb1 -26.253704 0.000000 33.147579
RightShoulder -27.308296 38.279182 -68.769707
RightArm -34.118313 64.273937 -23.246941
RightForeArm 20.158565 -0.000000 50.837980
RightHand 18.461222 -0.000000 -94.167445
RightHandThumb1 -24.326973 -0.000000 -32.862282
LeftUpLeg 12.534950 6.303708 18.414509
LeftLeg 86.054667 -0.000000 -0.000000
LeftFoot -10.785176 2.248875 -10.638763
LeftToeBase -42.256870 -0.000000 0.000000
RightUpLeg 5.456009 -17.306609 -14.179388
RightLeg 80.468123 -0.000000 -0.000000
RightFoot 30.883921 -12.153788 3.058800
RightToeBase -58.174171 -0.000000 0.000000
2611
root -21.342150 27.947744 0.593607 349.155128 -74.386340 -406.821682
Spine -75.047465 -16.907544 3.395121
Head -88.305283 3.791171 11.160827
LeftShoulder -18.516216 3.187307 50.070635
LeftArm 213.995699 -64.423066 -204.030247
LeftForeArm -13.416803 -0.000000 41.186187
LeftHand 18.640835 -0.000000 106.765164
LeftHandThumb1 -26.253704 0.000000 33.147579
RightShoulder -27.239224 38.115462 -68.577542
RightArm -34.057732 64.269829 -23.171538
RightForeArm 20.222822 -0.000000 50.832734
RightHand 18.475295 0.000000 -94.204768
RightHandThumb1 -24.326973 -0.000000 -32.862282
LeftUpLeg 12.563538 6.196386 18.374328
LeftLeg 86.021448 -0.000000 -0.000000
LeftFoot -10.872679 2.370759 -10.763389
LeftToeBase -42.288560 -0.000000 0.000000
RightUpLeg 5.527782 -17.284101 -14.078292
RightLeg 80.425312 -0.000000 -0.000000
RightFoot 30.661609 -11.952134 3.096630
RightToeBase -58.847741 -0.000000 0.000000
2612
root -21.366413 27.955602 0.557855 349.408221 -74.510385 -407.054143
Spine -75.094423 -16.907403 3.453751
Head -88.312290 3.879520 11.343989
LeftShoulder -18.493486 3.333723 50.087517
LeftArm 214.469054 -64.651940 -204.565640
LeftForeArm -13.243486 -0.000000 41.011398
LeftHand 18.596392 -0.000000 106.719510
LeftHandThumb1 -26.253704 0.000000 33.147579
RightShoulder -27.098836 38.100572 -68.415569
RightArm -34.084440 64.070345 -23.216554
RightForeArm 20.337399 -0.000000 50.801476
RightHand 18.448611 -0.000000 -94.161362
RightHandThumb1 -24.326973 -0.000000 -32.862282
LeftUpLeg 12.627584 6.138554 18.357688
LeftLeg 85.971539 -0.000000 -0.000000
LeftFoot -10.942702 2.536913 -10.836879
LeftToeBase -42.367366 -0.000000 0.000000
RightUpLeg 5.610824 -17.283681 -14.007958
RightLeg 80.370728 -0.000000 -0.000000
RightFoot 30.501735 -11.786512 2.995007
RightToeBase -59.184824 -0.000000 0.000000
